<svg width="88" height="88" viewBox="0 0 88 88" fill="none" xmlns="http://www.w3.org/2000/svg">
<path d="M29.3873 44.0814C29.3873 36.087 35.8665 29.6046 43.8613 29.6046C51.856 29.6046 58.3387 36.087 58.3387 44.0814C58.3387 52.0759 51.856 58.5583 43.8613 58.5583C35.8665 58.5583 29.3873 52.0759 29.3873 44.0814ZM21.561 44.0814C21.561 56.3974 31.5448 66.3808 43.8613 66.3808C56.1777 66.3808 66.1615 56.3974 66.1615 44.0814C66.1615 31.7655 56.1777 21.7821 43.8613 21.7821C31.5448 21.7821 21.561 31.7655 21.561 44.0814ZM61.8328 20.898C61.8317 23.776 64.164 26.1101 67.0422 26.1113C69.9204 26.1124 72.2546 23.7802 72.2558 20.9021C72.2569 18.024 69.9246 15.6899 67.0464 15.6888C64.1695 15.6901 61.8353 18.0212 61.8328 20.898ZM26.316 79.4301C22.0818 79.2373 19.7805 78.532 18.2511 77.9362C16.2235 77.1469 14.7768 76.2068 13.2557 74.6879C11.7347 73.169 10.7931 71.7237 10.0072 69.6962C9.41103 68.1675 8.70575 65.8655 8.51327 61.6316C8.30273 57.054 8.26069 55.6789 8.26069 44.0818C8.26069 32.4847 8.3062 31.1134 8.51327 26.532C8.7061 22.298 9.41659 20.0006 10.0072 18.4674C10.7966 16.4399 11.7367 14.9932 13.2557 13.4723C14.7747 11.9513 16.22 11.0098 18.2511 10.2239C19.7798 9.62774 22.0818 8.92248 26.316 8.73001C30.8937 8.51947 32.2689 8.47744 43.8613 8.47744C55.4536 8.47744 56.8302 8.52295 61.4117 8.73001C65.6459 8.92283 67.9434 9.63329 69.4767 10.2239C71.5043 11.0098 72.951 11.9533 74.472 13.4723C75.9931 14.9912 76.9311 16.4399 77.7205 18.4674C78.3167 19.9961 79.022 22.298 79.2145 26.532C79.425 31.1134 79.467 32.4847 79.467 44.0818C79.467 55.6789 79.425 57.0502 79.2145 61.6316C79.0216 65.8655 78.3129 68.1668 77.7205 69.6962C76.9311 71.7237 75.991 73.1703 74.472 74.6879C72.9531 76.2054 71.5043 77.1469 69.4767 77.9362C67.948 78.5324 65.6459 79.2376 61.4117 79.4301C56.834 79.6406 55.4589 79.6827 43.8613 79.6827C32.2637 79.6827 30.8924 79.6406 26.316 79.4301ZM25.9564 0.917292C21.3331 1.12783 18.1739 1.86088 15.415 2.9344C12.5577 4.043 10.1389 5.5303 7.72182 7.94346C5.30475 10.3566 3.82122 12.7792 2.71256 15.6363C1.639 18.3969 0.905922 21.5542 0.695378 26.1773C0.481361 30.8077 0.432373 32.288 0.432373 44.0814C0.432373 55.8749 0.481361 57.3552 0.695378 61.9856C0.905922 66.609 1.639 69.766 2.71256 72.5266C3.82122 75.382 5.30509 77.8073 7.72182 80.2194C10.1386 82.6316 12.5577 84.1168 15.415 85.2285C18.1792 86.302 21.3331 87.0351 25.9564 87.2456C30.5894 87.4561 32.0674 87.5086 43.8613 87.5086C55.6552 87.5086 57.1356 87.4596 61.7661 87.2456C66.3897 87.0351 69.5468 86.302 72.3075 85.2285C75.1631 84.1168 77.5836 82.6326 80.0007 80.2194C82.4178 77.8063 83.8982 75.382 85.01 72.5266C86.0835 69.766 86.8201 66.6087 87.0271 61.9856C87.2377 57.3517 87.2867 55.8749 87.2867 44.0814C87.2867 32.288 87.2377 30.8077 87.0271 26.1773C86.8166 21.5539 86.0835 18.3952 85.01 15.6363C83.8982 12.7809 82.414 10.3604 80.0007 7.94346C77.5874 5.52648 75.1631 4.043 72.311 2.9344C69.5468 1.86088 66.3894 1.12435 61.7696 0.917292C57.139 0.706757 55.6586 0.654297 43.8647 0.654297C32.0708 0.654297 30.5894 0.703283 25.9564 0.917292Z" fill="url(#paint0_radial_603_4)"/>
<defs>
<radialGradient id="paint0_radial_603_4" cx="0" cy="0" r="1" gradientUnits="userSpaceOnUse" gradientTransform="translate(185.066 1396.89) scale(1814.17)">
<stop offset="0.09" stop-color="#FA8F21"/>
<stop offset="0.78" stop-color="#D82D7E"/>
</radialGradient>
</defs>
</svg>
