<svg width="87" height="87" viewBox="0 0 87 87" fill="none" xmlns="http://www.w3.org/2000/svg">
<path d="M73.8262 0H13.0281C5.8329 0 0 5.8329 0 13.0281V73.8262C0 81.0214 5.8329 86.8543 13.0281 86.8543H73.8262C81.0214 86.8543 86.8543 81.0214 86.8543 73.8262V13.0281C86.8543 5.8329 81.0214 0 73.8262 0Z" fill="#0077B5"/>
<path d="M24.0886 29.6869C27.5551 29.6869 30.3652 26.8768 30.3652 23.4104C30.3652 19.9439 27.5551 17.1338 24.0886 17.1338C20.6221 17.1338 17.812 19.9439 17.812 23.4104C17.812 26.8768 20.6221 29.6869 24.0886 29.6869Z" fill="white"/>
<path d="M41.3914 32.9092V66.4974ZM24.0884 32.9092V66.4974Z" fill="white"/>
<path d="M41.3914 32.9092V66.4974M24.0884 32.9092V66.4974" stroke="white" stroke-width="11.1961"/>
<path d="M46.8198 47.8381C46.8198 44.4453 49.0251 41.0526 52.9268 41.0526C56.9981 41.0526 58.5248 44.1061 58.5248 48.6863V66.4982H69.7209V47.3292C69.7209 36.9813 64.2925 32.2314 56.8284 32.2314C51.0608 32.2314 48.1769 35.4546 46.8198 37.6598" fill="white"/>
</svg>
