<svg width="87" height="71" viewBox="0 0 87 71" fill="none" xmlns="http://www.w3.org/2000/svg">
<path d="M27.314 70.5709C60.0907 70.5709 78.0134 43.4151 78.0134 19.8715C78.0134 19.1009 78.0134 18.3303 77.9652 17.5666C81.4524 15.0432 84.4624 11.9191 86.8543 8.34043C83.6036 9.78227 80.155 10.7285 76.6236 11.1475C80.3419 8.91845 83.1242 5.4149 84.4531 1.28833C80.9546 3.36509 77.127 4.82868 73.1354 5.61591C70.4491 2.7595 66.8962 0.86811 63.0266 0.234432C59.1569 -0.399246 55.1863 0.26012 51.7292 2.11049C48.2721 3.96086 45.5212 6.89907 43.9023 10.4704C42.2834 14.0418 41.8867 18.0471 42.7735 21.8667C35.6888 21.5117 28.7579 19.6708 22.4308 16.4634C16.1037 13.256 10.5218 8.75382 6.0476 3.24916C3.76659 7.17091 3.06605 11.8146 4.08864 16.2347C5.11122 20.6548 7.78004 24.519 11.5517 27.0405C8.73542 26.9453 5.98266 26.1787 3.52261 24.8045V25.0315C3.52212 29.141 4.94149 33.1245 7.54049 36.3077C10.1395 39.491 13.7585 41.6785 17.785 42.5001C15.1602 43.2151 12.4064 43.3186 9.73533 42.8028C10.8726 46.3455 13.089 49.444 16.0745 51.6646C19.06 53.8852 22.665 55.1168 26.3852 55.187C20.0692 60.1332 12.2741 62.8131 4.2519 62.7964C2.83097 62.7972 1.41122 62.7145 0 62.5487C8.14789 67.7823 17.63 70.5601 27.314 70.5502" fill="#1DA1F2"/>
</svg>
